HIERARCHY
ROOT Hips
{
	OFFSET -13.091600 -28.302996 44.698402
	CHANNELS 6 Xposition Yposition Zposition Zrotation Xrotation Yrotation
	JOINT Chest
	{
		OFFSET -0.673000 0.623899 5.369202
		CHANNELS 6 Xposition Yposition Zposition Zrotation Xrotation Yrotation
		JOINT Chest2
		{
			OFFSET 0.000000 0.000000 4.415001
			CHANNELS 6 Xposition Yposition Zposition Zrotation Xrotation Yrotation
			JOINT Neck
			{
				OFFSET 0.000000 0.000002 10.273300
				CHANNELS 6 Xposition Yposition Zposition Zrotation Xrotation Yrotation
				JOINT Head
				{
					OFFSET 0.000000 0.000000 2.173897
					CHANNELS 6 Xposition Yposition Zposition Zrotation Xrotation Yrotation
					End Site
					{
						OFFSET 0.000000 0.000000 9.961800
					}
				}
			}
			JOINT LeftCollar
			{
				OFFSET 2.359900 -0.565201 5.928101
				CHANNELS 6 Xposition Yposition Zposition Zrotation Xrotation Yrotation
				JOINT LeftShoulder
				{
					OFFSET 5.443700 0.000000 0.000000
					CHANNELS 6 Xposition Yposition Zposition Zrotation Xrotation Yrotation
					JOINT LeftElbow
					{
						OFFSET 0.000000 0.000000 -10.615799
						CHANNELS 6 Xposition Yposition Zposition Zrotation Xrotation Yrotation
						JOINT LeftWrist
						{
							OFFSET 0.000000 -0.000002 -13.110302
							CHANNELS 6 Xposition Yposition Zposition Zrotation Xrotation Yrotation
							End Site
							{
								OFFSET 0.000000 0.000000 -2.173901
							}
						}
					}
				}
			}
			JOINT RightCollar
			{
				OFFSET -2.636600 -1.718800 6.889698
				CHANNELS 6 Xposition Yposition Zposition Zrotation Xrotation Yrotation
				JOINT RightShoulder
				{
					OFFSET -4.139101 0.000000 0.000000
					CHANNELS 6 Xposition Yposition Zposition Zrotation Xrotation Yrotation
					JOINT RightElbow
					{
						OFFSET 0.000000 0.000000 -10.471802
						CHANNELS 6 Xposition Yposition Zposition Zrotation Xrotation Yrotation
						JOINT RightWrist
						{
							OFFSET 0.000000 0.000000 -12.281898
							CHANNELS 6 Xposition Yposition Zposition Zrotation Xrotation Yrotation
							End Site
							{
								OFFSET 0.000000 -0.000002 -2.173901
							}
						}
					}
				}
			}
		}
	}
	JOINT LeftHip
	{
		OFFSET 2.273400 0.176701 -2.518002
		CHANNELS 6 Xposition Yposition Zposition Zrotation Xrotation Yrotation
		JOINT LeftKnee
		{
			OFFSET 0.000000 -0.000002 -20.456402
			CHANNELS 6 Xposition Yposition Zposition Zrotation Xrotation Yrotation
			JOINT LeftAnkle
			{
				OFFSET 0.000000 -0.000002 -16.635300
				CHANNELS 6 Xposition Yposition Zposition Zrotation Xrotation Yrotation
				End Site
				{
					OFFSET 0.000000 -8.812399 0.000001
				}
			}
		}
	}
	JOINT RightHip
	{
		OFFSET -1.914800 0.018101 -2.699299
		CHANNELS 6 Xposition Yposition Zposition Zrotation Xrotation Yrotation
		JOINT RightKnee
		{
			OFFSET 0.000000 -0.000002 -20.148901
			CHANNELS 6 Xposition Yposition Zposition Zrotation Xrotation Yrotation
			JOINT RightAnkle
			{
				OFFSET 0.000000 -0.000002 -16.838301
				CHANNELS 6 Xposition Yposition Zposition Zrotation Xrotation Yrotation
				End Site
				{
					OFFSET 0.000000 -8.328398 0.000001
				}
			}
		}
	}
}
MOTION
Frames: 8
Frame Time: 0.041667
-17.338001 -0.073496 42.757301 3423.760510 -10.677686 5.228521 -0.673000 0.623898 5.369201 -4.604843 -7.800459 -1.361049 0.000004 0.000003 4.415006 1.007208 0.435467 0.113759 -0.000000 -0.000005 10.273300 -21.374223 -37.777226 -6.980075 -0.000003 -0.000001 2.173911 -1.616576 -12.201863 -2.065860 2.359901 -0.565202 5.928096 9.063703 -3.439627 -23.948581 5.443700 0.000001 -0.000011 -73.472359 334.937150 -143.021866 -0.000001 0.000006 -10.615788 579.002786 -150.203892 190.707652 -0.000003 0.000003 -13.110303 -2040.896806 176.988260 -555.379948 -2.636599 -1.718802 6.889694 181.407024 -183.892926 212.476257 -4.139096 -0.000003 -0.000006 -122.801282 -138.424343 320.124710 0.000003 0.000002 -10.471797 23.973751 0.045332 -359.132603 0.000005 -0.000005 -12.281893 20.527705 13.139389 38.656542 2.273399 0.176702 -2.517999 -504.181451 -155.496879 -176.430521 0.000001 -0.000003 -20.456402 771.642315 152.381657 -105.617619 -0.000003 -0.000003 -16.635302 -301.346744 -6.906277 25.353611 -1.914800 0.018101 -2.699297 245.213217 144.331637 176.970434 -0.000001 -0.000007 -20.148901 -927.016879 -193.582669 163.956546 -0.000001 -0.000002 -16.838303 1053.735904 68.613000 -31.130206
-17.375702 -0.054296 42.730305 3423.815152 -10.770039 5.324262 -0.673001 0.623899 5.369211 -4.678015 -7.739689 -1.276658 0.000002 0.000001 4.415008 1.027588 0.427201 0.118855 -0.000003 0.000002 10.273314 -21.540405 -37.828603 -7.111057 -0.000001 -0.000005 2.173901 -1.513983 -12.136906 -2.080391 2.359898 -0.565204 5.928103 9.152258 -3.525984 -23.961596 5.443700 -0.000000 -0.000002 -73.510034 334.839970 -142.914783 -0.000001 0.000003 -10.615788 579.605045 -149.908678 191.084159 -0.000004 0.000003 -13.110298 -2041.265745 176.976007 -555.561139 -2.636602 -1.718803 6.889702 181.496622 -184.025377 212.492554 -4.139092 -0.000002 0.000001 -122.875226 -138.062179 320.200552 0.000000 -0.000005 -10.471793 24.025406 -0.106258 -359.165470 0.000005 -0.000003 -12.281892 20.617519 13.096107 38.812031 2.273399 0.176705 -2.518001 -504.281500 -155.538434 -176.453853 -0.000001 -0.000003 -20.456398 771.241192 152.815838 -105.335396 -0.000004 -0.000002 -16.635300 -300.879614 -7.099484 25.738974 -1.914799 0.018099 -2.699296 243.334587 144.529781 177.997926 -0.000001 -0.000000 -20.148895 -926.592752 -194.274253 164.298602 -0.000000 -0.000004 -16.838303 1054.009330 69.082309 -28.864984
-17.414305 -0.033594 42.693600 3423.758762 -10.903062 5.345557 -0.672996 0.623903 5.369205 -4.632724 -7.673882 -1.136878 -0.000000 -0.000003 4.415008 0.999109 0.425003 0.116704 -0.000003 0.000001 10.273299 -21.548263 -37.817880 -7.190477 -0.000001 -0.000004 2.173903 -1.551398 -12.130848 -2.039376 2.359896 -0.565204 5.928098 9.245835 -3.617216 -23.910317 5.443703 -0.000003 0.000002 -73.499065 334.830162 -142.820212 0.000003 -0.000000 -10.615794 579.910163 -149.617507 191.351725 -0.000006 -0.000002 -13.110301 -2041.352079 176.934917 -555.696814 -2.636600 -1.718803 6.889700 181.588202 -184.145001 212.497977 -4.139099 -0.000002 -0.000005 -122.775861 -137.745736 320.292186 0.000003 -0.000002 -10.471806 24.226719 -0.154081 -359.183830 0.000000 -0.000007 -12.281891 20.650886 13.134653 39.050971 2.273403 0.176708 -2.518006 -504.337726 -155.642444 -176.489520 0.000000 -0.000000 -20.456400 771.185512 152.680409 -105.094980 0.000001 -0.000004 -16.635302 -300.951850 -7.129158 25.772179 -1.914798 0.018106 -2.699298 242.651049 144.549260 178.422491 -0.000002 -0.000001 -20.148905 -926.252335 -194.657277 164.375879 -0.000000 -0.000006 -16.838303 1054.488208 69.206653 -28.430439
-17.452499 -0.007092 42.650806 3423.697782 -11.178911 5.420799 -0.672998 0.623900 5.369209 -4.570154 -7.417426 -1.057301 0.000004 -0.000001 4.415003 1.055876 0.398159 0.129681 -0.000005 -0.000004 10.273305 -21.726524 -37.809718 -7.322900 -0.000003 -0.000009 2.173903 -1.481716 -12.121532 -1.994103 2.359897 -0.565203 5.928100 9.483385 -3.706676 -23.682397 5.443700 -0.000000 -0.000002 -73.819605 335.027363 -142.797795 0.000001 -0.000003 -10.615801 580.388440 -149.373341 191.525785 -0.000003 0.000006 -13.110298 -2041.741127 176.961623 -555.798939 -2.636604 -1.718805 6.889697 181.542029 -183.935464 212.467774 -4.139100 -0.000002 0.000009 -122.738335 -137.667941 320.064386 0.000003 -0.000002 -10.471786 24.412115 -0.188630 -359.181070 0.000002 -0.000007 -12.281893 20.641880 13.017149 39.125280 2.273400 0.176702 -2.518001 -504.567002 -155.832624 -176.735967 0.000002 -0.000006 -20.456394 771.073770 153.008737 -104.830993 -0.000003 -0.000004 -16.635300 -300.559442 -7.296301 25.972132 -1.914795 0.018099 -2.699297 242.511003 144.486272 178.400798 0.000001 -0.000000 -20.148901 -925.951479 -194.877141 164.352192 0.000000 -0.000004 -16.838306 1054.974080 69.225921 -28.704918
-17.495003 0.017405 42.603806 3423.651883 -11.360106 5.692208 -0.672999 0.623901 5.369207 -4.555333 -7.279580 -1.229254 0.000002 0.000002 4.415003 0.883936 0.416325 0.102186 -0.000003 0.000000 10.273317 -21.624439 -37.862809 -7.288073 -0.000002 -0.000009 2.173898 -1.520141 -12.043527 -2.091131 2.359898 -0.565204 5.928108 9.782379 -4.285320 -23.632581 5.443700 -0.000002 0.000000 -73.970143 335.040258 -142.315106 0.000001 -0.000001 -10.615800 580.861581 -149.172889 191.884302 -0.000006 0.000000 -13.110304 -2042.237490 177.012753 -555.781509 -2.636605 -1.718805 6.889706 181.689234 -184.201883 212.715136 -4.139102 -0.000002 -0.000002 -122.588440 -137.144024 320.275193 0.000002 -0.000002 -10.471789 24.443919 -0.237768 -359.205003 0.000002 -0.000001 -12.281897 20.951761 13.024447 39.282634 2.273401 0.176705 -2.518008 -505.006156 -155.843880 -177.084812 0.000001 0.000001 -20.456390 771.092786 153.190652 -104.547902 -0.000003 -0.000005 -16.635302 -300.228533 -7.446885 26.130055 -1.914799 0.018101 -2.699300 244.423838 144.410649 177.173236 -0.000003 -0.000002 -20.148903 -926.093110 -194.411445 163.842701 0.000000 -0.000003 -16.838305 1054.709506 68.983230 -30.163454
-17.534401 0.041306 42.554104 3423.520306 -11.375772 5.778552 -0.672996 0.623900 5.369208 -4.463406 -7.391379 -1.200290 0.000004 0.000002 4.415007 0.734342 0.402618 0.076944 -0.000000 0.000001 10.273311 -21.639767 -37.769918 -7.327542 0.000002 -0.000004 2.173902 -1.491817 -12.068560 -2.090369 2.359898 -0.565201 5.928110 9.628696 -4.273324 -23.687298 5.443696 0.000000 -0.000005 -73.304575 335.105500 -142.110296 0.000002 -0.000003 -10.615789 581.742402 -148.986971 192.425581 -0.000008 0.000009 -13.110302 -2042.692545 177.035457 -555.993299 -2.636604 -1.718803 6.889698 181.994338 -184.820875 212.853734 -4.139108 -0.000004 0.000007 -122.605721 -136.492356 320.676480 0.000003 -0.000003 -10.471804 24.571156 -0.362080 -359.200277 0.000005 -0.000005 -12.281890 21.126354 12.900971 39.431010 2.273402 0.176704 -2.518003 -505.054185 -155.799811 -177.111600 0.000001 -0.000001 -20.456394 770.902797 153.464761 -104.244560 -0.000001 -0.000003 -16.635302 -299.824459 -7.602757 26.241269 -1.914797 0.018103 -2.699297 244.620930 144.396783 177.140710 0.000000 -0.000002 -20.148899 -926.257144 -194.446415 163.779371 0.000001 -0.000002 -16.838305 1055.047956 68.976988 -30.257943
-17.581902 0.065506 42.500000 3423.385888 -11.425394 5.854928 -0.673002 0.623899 5.369209 -4.357918 -7.451212 -1.211272 0.000002 -0.000002 4.415003 0.650562 0.415743 0.071782 -0.000003 0.000003 10.273300 -21.668688 -37.737406 -7.326466 -0.000001 -0.000004 2.173902 -1.539035 -12.036801 -2.159016 2.359898 -0.565203 5.928104 9.424790 -4.178576 -23.806003 5.443696 0.000002 -0.000002 -72.614883 335.086458 -141.900527 0.000002 -0.000002 -10.615796 582.607596 -148.730634 192.813221 -0.000002 -0.000001 -13.110296 -2043.076347 177.182224 -556.088102 -2.636600 -1.718802 6.889697 182.052600 -184.802625 212.961446 -4.139102 0.000000 0.000002 -122.643683 -136.331081 320.519768 0.000001 -0.000003 -10.471799 24.576559 -0.586998 -359.155990 0.000006 -0.000003 -12.281902 21.334830 13.011058 39.584710 2.273396 0.176704 -2.517996 -505.168058 -155.786479 -177.204409 0.000005 -0.000005 -20.456402 770.874438 153.628030 -104.003168 -0.000004 -0.000003 -16.635302 -299.536361 -7.713526 26.244170 -1.914798 0.018099 -2.699294 246.124801 144.218761 176.312195 0.000000 0.000002 -20.148897 -926.514833 -193.949546 163.440922 0.000001 0.000000 -16.838303 1054.981839 68.802695 -31.580459
-17.631002 0.094303 42.451805 3423.359879 -11.529662 5.932499 -0.673003 0.623898 5.369203 -4.351176 -7.429355 -1.149913 0.000000 -0.000001 4.415006 0.539241 0.398785 0.049748 -0.000003 -0.000002 10.273307 -21.721484 -37.757935 -7.407073 -0.000001 -0.000008 2.173908 -1.467784 -11.976406 -2.219214 2.359897 -0.565201 5.928097 9.326464 -4.289124 -23.956839 5.443692 0.000003 -0.000009 -72.034604 335.168010 -141.564140 0.000003 -0.000002 -10.615787 583.121444 -148.438070 192.998470 -0.000007 0.000004 -13.110292 -2043.138857 177.278844 -556.119084 -2.636605 -1.718803 6.889704 182.058597 -184.827596 212.877162 -4.139101 -0.000003 -0.000001 -122.178506 -136.142268 320.775490 0.000002 -0.000001 -10.471791 24.567282 -0.632756 -359.152930 0.000004 -0.000003 -12.281906 21.731396 12.902393 39.750403 2.273398 0.176702 -2.518002 -505.357227 -155.870682 -177.253053 0.000005 -0.000000 -20.456398 770.839358 153.520168 -103.746120 -0.000003 -0.000004 -16.635302 -299.413309 -7.822798 26.184790 -1.914801 0.018100 -2.699296 247.365409 144.026587 175.506601 -0.000002 -0.000001 -20.148903 -926.648923 -193.506731 163.159518 0.000000 -0.000002 -16.838299 1055.033530 68.575905 -33.008433
